<?xml version="1.0" encoding="UTF-8" standalone="no"?>
<!-- Created with Inkscape (http://www.inkscape.org/) -->

<svg
   xmlns:dc="http://purl.org/dc/elements/1.1/"
   xmlns:cc="http://creativecommons.org/ns#"
   xmlns:rdf="http://www.w3.org/1999/02/22-rdf-syntax-ns#"
   xmlns:svg="http://www.w3.org/2000/svg"
   xmlns="http://www.w3.org/2000/svg"
   xmlns:sodipodi="http://sodipodi.sourceforge.net/DTD/sodipodi-0.dtd"
   xmlns:inkscape="http://www.inkscape.org/namespaces/inkscape"
   width="250"
   height="250"
   viewBox="0 0 250 250"
   version="1.1"
   id="svg8"
   inkscape:version="0.92.2 (5c3e80d, 2017-08-06)"
   sodipodi:docname="placeholder.svg">
  <defs
     id="defs2" />
  <sodipodi:namedview
     id="base"
     pagecolor="#184867"
     bordercolor="#666666"
     borderopacity="1.0"
     inkscape:pageopacity="0"
     inkscape:pageshadow="2"
     inkscape:zoom="1.4"
     inkscape:cx="-132.74251"
     inkscape:cy="146.60761"
     inkscape:document-units="px"
     inkscape:current-layer="layer1"
     showgrid="false"
     units="px"
     inkscape:window-width="1680"
     inkscape:window-height="987"
     inkscape:window-x="-8"
     inkscape:window-y="-8"
     inkscape:window-maximized="1"
     inkscape:pagecheckerboard="true" />
  <metadata
     id="metadata5">
    <rdf:RDF>
      <cc:Work
         rdf:about="">
        <dc:format>image/svg+xml</dc:format>
        <dc:type
           rdf:resource="http://purl.org/dc/dcmitype/StillImage" />
        <dc:title></dc:title>
      </cc:Work>
    </rdf:RDF>
  </metadata>
  <g
     inkscape:label="Ebene 1"
     inkscape:groupmode="layer"
     id="layer1"
     transform="translate(0,-230.85417)">
    <rect
       style="fill:#446e9b;fill-opacity:1;stroke:none;stroke-width:0;stroke-miterlimit:4;stroke-dasharray:none;stroke-opacity:1"
       id="rect4525"
       width="252.14285"
       height="250.17331"
       x="0"
       y="230.85417" />
    <path
       id="path4514"
       d="m 78.265304,290.42559 c -10.31084,0 -18.693876,8.38304 -18.693876,18.69388 v 93.46939 c 0,10.31084 8.383036,18.69388 18.693875,18.69388 H 171.7347 c 10.31084,0 18.69387,-8.38304 18.69387,-18.69388 v -93.46939 c 0,-10.31084 -8.38303,-18.69388 -18.69387,-18.69388 z m 18.693881,56.08164 c 5.170025,0 9.346935,4.17691 9.346935,9.34693 v 28.04082 c 0,5.17003 -4.17691,9.34694 -9.346935,9.34694 -5.170026,0 -9.346941,-4.17691 -9.346941,-9.34694 v -28.04082 c 0,-5.17002 4.176915,-9.34693 9.346941,-9.34693 z m 18.693875,-18.69388 c 0,-5.17003 4.17691,-9.34694 9.34694,-9.34694 5.17002,0 9.34694,4.17691 9.34694,9.34694 v 56.08164 c 0,5.17003 -4.17692,9.34694 -9.34694,9.34694 -5.17003,0 -9.34694,-4.17691 -9.34694,-9.34694 z m 37.38775,37.38775 c 5.17003,0 9.34695,4.17692 9.34695,9.34694 v 9.34695 c 0,5.17003 -4.17692,9.34694 -9.34695,9.34694 -5.17002,0 -9.34693,-4.17691 -9.34693,-9.34694 v -9.34695 c 0,-5.17002 4.17691,-9.34694 9.34693,-9.34694 z"
       inkscape:connector-curvature="0"
       style="stroke-width:0.29209185;fill:#184867;fill-opacity:1" />
  </g>
</svg>
